{
  "accessors": [
    {
      "bufferView": 0,
      "componentType": 5126,
      "count": 25994,
      "max": [
        118.47724151611328,
        53.465919494628906,
        216.4190673828125
      ],
      "min": [
        -118.47724151611328,
        -381.8634033203125,
        -2.2065273697080556e-06
      ],
      "type": "VEC3"
    },
    {
      "bufferView": 0,
      "byteOffset": 12,
      "componentType": 5126,
      "count": 25994,
      "type": "VEC3"
    },
    {
      "bufferView": 0,
      "byteOffset": 24,
      "componentType": 5126,
      "count": 25994,
      "type": "VEC2"
    },
    {
      "bufferView": 1,
      "componentType": 5125,
      "count": 105516,
      "type": "SCALAR"
    }
  ],
  "asset": {
    "version": "2.0"
  },
  "bufferViews": [
    {
      "buffer": 0,
      "byteLength": 831808,
      "byteStride": 32,
      "target": 34962
    },
    {
      "buffer": 0,
      "byteLength": 422064,
      "byteOffset": 831808,
      "target": 34963
    }
  ],
  "buffers": [
    {
      "byteLength": 1253872,
      "uri": "GERevolutionApexCTMachine_FORCAROUSEL_.bin"
    }
  ],
  "images": [
    {
      "uri": "T_GERevolutionApexCTMachine_FORCAROUSEL_AORM.png"
    },
    {
      "uri": "T_GERevolutionApexCTMachine_FORCAROUSEL_Nrm.png"
    },
    {
      "uri": "M_GERevolutionApexCTMachine_FORCAROUSEL_basecolortexture.png"
    },
    {
      "uri": "M_GERevolutionApexCTMachine_FORCAROUSEL_metallicroughnesstex.png"
    }
  ],
  "materials": [
    {
      "name": "M_GERevolutionApexCTMachine_FORCAROUSEL_",
      "normalTexture": {
        "index": 1
      },
      "occlusionTexture": {
        "index": 0
      },
      "pbrMetallicRoughness": {
        "baseColorTexture": {
          "index": 2
        },
        "metallicRoughnessTexture": {
          "index": 3
        }
      }
    }
  ],
  "meshes": [
    {
      "name": "SM_GERevolutionApexCTMachine_FORCAROUSEL_",
      "primitives": [
        {
          "attributes": {
            "NORMAL": 1,
            "POSITION": 0,
            "TEXCOORD_0": 2
          },
          "indices": 3,
          "material": 0,
          "mode": 4
        }
      ]
    }
  ],
  "nodes": [
    {
      "matrix": [
        0.01,
        0.0,
        0.0,
        0.0,
        0.0,
        0.01,
        0.0,
        0.0,
        0.0,
        0.0,
        0.01,
        0.0,
        0.0,
        0.0,
        0.0,
        1.0
      ],
      "mesh": 0,
      "name": "SM_GERevolutionApexCTMachine_FORCAROUSEL_"
    },
    {
      "children": [
        0
      ],
      "matrix": [
        1.0,
        0.0,
        0.0,
        0.0,
        0.0,
        4.371138828673793e-08,
        -1.0,
        0.0,
        0.0,
        1.0,
        4.371138828673793e-08,
        0.0,
        4.075623779296875,
        0.0,
        0.0,
        1.0
      ]
    }
  ],
  "samplers": [
    {
      "magFilter": 9729,
      "minFilter": 9729,
      "wrapS": 10497,
      "wrapT": 10497
    },
    {
      "magFilter": 9729,
      "minFilter": 9729,
      "wrapS": 10497,
      "wrapT": 10497
    },
    {
      "magFilter": 9729,
      "minFilter": 9729,
      "wrapS": 10497,
      "wrapT": 10497
    },
    {
      "magFilter": 9729,
      "minFilter": 9729,
      "wrapS": 10497,
      "wrapT": 10497
    }
  ],
  "scenes": [
    {
      "nodes": [
        1
      ]
    }
  ],
  "textures": [
    {
      "name": "texture_source0_sampler0",
      "sampler": 0,
      "source": 0
    },
    {
      "name": "texture_source1_sampler1",
      "sampler": 1,
      "source": 1
    },
    {
      "name": "texture_source2_sampler2",
      "sampler": 2,
      "source": 2
    },
    {
      "name": "texture_source3_sampler3",
      "sampler": 3,
      "source": 3
    }
  ]
}
